<?xml version="1.0" encoding="UTF-8" standalone="no"?>
<svg width="144px" height="130px" viewBox="0 0 144 130" version="1.1" xmlns="http://www.w3.org/2000/svg" xmlns:xlink="http://www.w3.org/1999/xlink">
    <!-- Generator: Sketch 50 (54983) - http://www.bohemiancoding.com/sketch -->
    <title>Group</title>
    <desc>Created with Sketch.</desc>
    <defs></defs>
    <g id="Page-1" stroke="none" stroke-width="1" fill="none" fill-rule="evenodd">
        <g id="aaaa" transform="translate(-68.000000, -61.000000)">
            <g id="Group" transform="translate(68.000000, 61.000000)">
                <path d="M73.3441662,130 C106.985929,130 144.314048,108.449341 139.594165,67 C134.874282,25.550659 106.985929,4 73.3441662,4 C39.7024032,4 12.0324914,22.8921149 4.81614086,67 C-2.40020971,111.107885 39.7024032,130 73.3441662,130 Z" id="Oval-Copy-2" fill="#FFFFFF"></path>
                <path d="M72.6761454,123 C102.112688,123 134.774792,104.185933 130.644894,68 C126.514997,31.8140674 102.112688,13 72.6761454,13 C43.2396028,13 19.02843,29.4931162 12.7141233,68 C6.3998165,106.506884 43.2396028,123 72.6761454,123 Z" id="Oval-Copy" fill="#325776"></path>
                <path d="M17.8516267,44.9999921 C21.2307674,45.0112493 22.6987052,32.9167999 28.7333027,27.4102311 C34.2730952,22.3551719 47,20.6218656 47,14.7774864 C47,2.56671785 33.7657279,-1.42108547e-14 22.0795963,-1.42108547e-14 C10.3934647,-1.42108547e-14 0,12.3853887 0,24.5961572 C0,36.8069258 11.3704171,44.9784008 17.8516267,44.9999921 Z" id="Oval-2-Copy-2" fill="#FFFFFF"></path>
                <path d="M114.851627,44.9999921 C118.230767,45.0112493 119.698705,32.9167999 125.733303,27.4102311 C131.273095,22.3551719 144,20.6218656 144,14.7774864 C144,2.56671785 130.765728,-1.42108547e-14 119.079596,-1.42108547e-14 C107.393465,-1.42108547e-14 97,12.3853887 97,24.5961572 C97,36.8069258 108.370417,44.9784008 114.851627,44.9999921 Z" id="Oval-2-Copy" fill="#FFFFFF" transform="translate(120.500000, 22.500000) scale(-1, 1) translate(-120.500000, -22.500000) "></path>
                <path d="M101.462995,88.7258011 C111.01652,86.4335642 115,82.3908724 115,69.327304 C115,56.2637357 108.914347,43 98.436135,43 C87.9579232,43 81,52.4326922 81,65.4962606 C81,78.5598289 91.909469,91.0180379 101.462995,88.7258011 Z" id="Oval-4-Copy-2" fill="#FFFFFF"></path>
                <path d="M98.2087565,72 C100.888471,72 101.685517,71.3204044 102.896814,69.7946178 C104.255082,68.0837027 105.267982,66.0991397 104.936783,62 C104.383382,55.1507592 101.477929,52 95.7933614,52 C90.1087941,52 89,56.3423411 89,62 C89,67.6576589 92.5241892,72 98.2087565,72 Z" id="Oval-3-Copy-2" fill="#325776"></path>
                <path d="M49.3039029,88.7258011 C58.7831536,86.4335642 60.9098652,83.1279069 62.7356635,69.327304 C64.5614618,55.5267011 56.6973238,43 46.3005759,43 C35.9038281,43 29,52.4326922 29,65.4962606 C29,78.5598289 39.8246522,91.0180379 49.3039029,88.7258011 Z" id="Oval-4-Copy" fill="#FFFFFF" transform="translate(46.000000, 66.000000) scale(-1, 1) translate(-46.000000, -66.000000) "></path>
                <path d="M48.2087565,72 C50.8884709,72 51.6855168,71.3204044 52.8968141,69.7946178 C54.2550821,68.0837027 55.2679822,66.0991397 54.9367826,62 C54.3833821,55.1507592 51.4779287,52 45.7933614,52 C40.1087941,52 39,56.3423411 39,62 C39,67.6576589 42.5241892,72 48.2087565,72 Z" id="Oval-3-Copy" fill="#325776" transform="translate(47.000000, 62.000000) scale(-1, 1) translate(-47.000000, -62.000000) "></path>
                <path d="M72.5763368,103 C77.868323,103 83,95.2164259 83,91.8783775 C83,88.5403291 77.7919863,88 72.5,88 C67.2080137,88 62,88.5403291 62,91.8783775 C62,95.2164259 67.2843505,103 72.5763368,103 Z" id="Oval-5-Copy" fill="#FFFFFF"></path>
            </g>
        </g>
    </g>
</svg>